<svg width="512" height="512" viewBox="0 0 512 512" fill="none" xmlns="http://www.w3.org/2000/svg">
<g clip-path="url(#clip0_1_2)">
<path d="M292.412 121.073C290.307 120.518 288.177 120.038 286.048 119.609V82.544C286.048 82.544 286.048 32.7542 329.255 12H225.978V119.583C223.823 120.013 221.693 120.518 219.588 121.073C156.247 137.51 112 194.571 112 259.838C112 325.105 156.247 382.141 219.613 398.578C221.718 399.108 223.848 399.613 225.978 400.068V434.456C225.978 434.456 225.978 484.246 182.745 505H286.048V400.068C288.203 399.613 290.333 399.134 292.463 398.578C355.778 382.091 400 325.055 400 259.838C400 194.622 355.778 137.56 292.412 121.073ZM162.713 259.838C162.713 219.794 188.399 184.522 225.978 171.873V347.778C188.425 335.129 162.713 299.857 162.713 259.838ZM286.048 347.778V171.898C323.601 184.547 349.287 219.819 349.287 259.838C349.287 299.857 323.601 335.129 286.048 347.778Z" fill="black"/>
</g>
<defs>
<clipPath id="clip0_1_2">
<rect width="288" height="493" fill="white" transform="translate(112 12)"/>
</clipPath>
</defs>
</svg>
