<?xml version="1.0" encoding="utf-8"?>
<!-- Generator: Adobe Illustrator 27.8.1, SVG Export Plug-In . SVG Version: 6.00 Build 0)  -->
<svg version="1.1" id="Layer_1" xmlns="http://www.w3.org/2000/svg" xmlns:xlink="http://www.w3.org/1999/xlink" x="0px" y="0px"
	 viewBox="0 0 74.3 74" style="enable-background:new 0 0 74.3 74;" xml:space="preserve">
<style type="text/css">
	.st0{fill:#FFFFFF;}
</style>
<g>
	<polygon class="st0" points="30.5,33.4 33.7,30.2 33.7,33.4 	"/>
	<polygon class="st0" points="39.9,39.6 43.1,39.6 39.9,42.7 	"/>
	<path class="st0" d="M37.3,0c-20.4,0-37,16.6-37,37s16.6,37,37,37s37-16.6,37-37S57.7,0,37.3,0z M49.3,30.2h-9.4v3.1h9.4v9.4
		L43.1,49H40v6.2h-6.2V49h-9.5v-6.2h9.4v-3.1h-9.4v-9.4l6.2-6.2h3.1v-6.2h6.2V24h9.5V30.2z"/>
</g>
</svg>
