<?xml version="1.0" encoding="utf-8"?>
<!-- Generator: Adobe Illustrator 27.8.1, SVG Export Plug-In . SVG Version: 6.00 Build 0)  -->
<svg version="1.1" id="Layer_1" xmlns="http://www.w3.org/2000/svg" xmlns:xlink="http://www.w3.org/1999/xlink" x="0px" y="0px"
	 viewBox="0 0 248 76" style="enable-background:new 0 0 248 76;" xml:space="preserve">
<style type="text/css">
	.st0{fill:#FFFFFF;}
</style>
<polygon class="st0" points="49,32.2 39.6,41.6 39.6,32.2 "/>
<path class="st0" d="M164.6,32.2v12.5h12.5V32.2H164.6z M164.6,32.2v12.5h12.5V32.2H164.6z M210,0H38C27.5,0,18,4.3,11.1,11.1
	C4.2,18,0,27.5,0,38c0,21,17,38,38,38h172c10.5,0,20-4.2,26.9-11.1C243.8,58,248,48.5,248,38C248,17,231,0,210,0z M58.4,32.2
	l-3.1,3.1h3.1v6.2l-25,25v-9.4L49,41.6h-9.4V51h-6.2V26h25V32.2z M86.5,44.7L80.2,51H61.5V26h6.2v18.8h9.4l3.1-3.1V26h6.2V44.7z
	 M105.2,40.1v14.1L99,60.4V40.1l-9.4-9.4v-9.4l12.5,12.5l7.8-7.8h9.4L105.2,40.1z M155.2,55.7l-18.8-18.8V51h-6.2V21.3L149,40.1V26
	h6.2V55.7z M183.4,51h-25V26h25V51z M211.5,51L199,38.5L186.5,51V26h6.2v9.4l6.2-6.2l6.2,6.2V26h6.2V51z M177.1,32.2h-12.5v12.5
	h12.5V32.2z"/>
</svg>
