<?xml version="1.0" encoding="utf-8"?>
<!-- Generator: Adobe Illustrator 27.8.1, SVG Export Plug-In . SVG Version: 6.00 Build 0)  -->
<svg version="1.1" id="Layer_1" xmlns="http://www.w3.org/2000/svg" xmlns:xlink="http://www.w3.org/1999/xlink" x="0px" y="0px"
	 viewBox="0 0 74 74" style="enable-background:new 0 0 74 74;" xml:space="preserve">
<style type="text/css">
	.st0{fill:#FFFFFF;}
</style>
<g>
	<path class="st0" d="M37,0C16.6,0,0,16.6,0,37s16.6,37,37,37s37-16.6,37-37S57.4,0,37,0z M57.8,38.4h-7.4c-2.3,0-4.3-1.8-4.5-4.1
		c-0.3-3.1-0.6-5.3-0.9-6.8c-0.3,2.9-0.5,6.7-0.7,9.8c-0.3,4-0.5,8.2-0.9,11.4c-0.2,1.7-0.4,3-0.6,3.9S42.3,55,40.9,55
		s-1.6-1.6-1.8-2.6c-0.2-1-0.3-2.4-0.5-4.3c-0.3-3.5-0.5-8-0.7-12.8s-0.5-10.8-0.9-15c-0.3,3.4-0.5,7.9-0.7,11.7
		c-0.2,4.4-0.5,8.9-0.8,12.2c-0.5,4.9-0.9,6.7-2.4,6.7s-2-1.8-2.5-5.2c-0.3-2.5-0.6-5.8-0.8-9.1c-0.2-2.7-0.4-5.9-0.7-8.2
		c-0.3,1.4-0.6,3.3-0.9,6c-0.3,2.3-2.2,4-4.5,4h-7.4c-0.7,0-1.2-0.6-1.2-1.2c0-0.7,0.6-1.2,1.2-1.2h7.4c1,0,1.9-0.8,2.1-1.8
		c0.2-1.8,0.5-4.2,1-6.3c0.6-2.7,1.2-4.4,2.7-4.4c1.6,0,1.9,2,2.3,4.7c0.3,2.2,0.5,5.1,0.7,8.2c0.2,2.5,0.4,5.6,0.7,8.2
		c0.3-3.5,0.6-8.6,0.8-12.7c0.2-4.3,0.5-8.8,0.8-12.2c0.2-1.8,0.3-3.2,0.5-4.1c0.2-0.9,0.5-2.5,1.9-2.5s1.8,1.8,2,2.9
		c0.2,1.1,0.4,2.8,0.6,4.9c0.3,4,0.6,9.3,0.9,14.4c0.2,3.8,0.4,8.1,0.6,11.5c0.3-3,0.5-6.6,0.7-9.6c0.3-3.8,0.5-7.4,0.8-10.1
		c0.1-1.5,0.3-2.6,0.5-3.4c0.1-0.8,0.4-2.2,1.7-2.2c1.5,0,2,1.8,2.7,5.2c0.4,2.4,0.8,5.4,1,7.5c0.1,1.1,1,1.9,2.1,1.9h7.4
		c0.7,0,1.2,0.6,1.2,1.2S58.4,38.4,57.8,38.4z"/>
</g>
</svg>
