<?xml version="1.0" encoding="utf-8"?>
<!-- Generator: Adobe Illustrator 27.8.1, SVG Export Plug-In . SVG Version: 6.00 Build 0)  -->
<svg version="1.1" id="Layer_1" xmlns="http://www.w3.org/2000/svg" xmlns:xlink="http://www.w3.org/1999/xlink" x="0px" y="0px"
	 viewBox="0 0 74 74" style="enable-background:new 0 0 74 74;" xml:space="preserve">
<style type="text/css">
	.st0{fill:#FFFFFF;}
</style>
<g>
	<path class="st0" d="M37,0C16.6,0,0,16.6,0,37s16.6,37,37,37s37-16.6,37-37S57.4,0,37,0z M49.2,36.3V55H24.8V36.3L17,34.1L21.2,22
		c0.5-1.5,1.7-2.6,3.1-3l6.5-2c0.6,1.6,3.1,2.8,6.2,2.8s5.7-1.2,6.2-2.8l6.5,2c1.5,0.4,2.6,1.5,3.1,3L57,34.1L49.2,36.3z"/>
</g>
</svg>
